<svg xmlns="http://www.w3.org/2000/svg" xmlns:xlink="http://www.w3.org/1999/xlink" viewBox="0 0 287 129.49"><defs><style>.cls-1{fill:none;}.cls-2{font-size:27.45px;font-family:Roboto-Regular, Roboto;}.cls-3{isolation:isolate;}.cls-4{fill:#824e34;}.cls-5{fill:#fa9664;}.cls-6{fill:#804d33;}.cls-7{clip-path:url(#clip-path);}.cls-8{clip-path:url(#clip-path-2);}.cls-9{clip-path:url(#clip-path-3);}.cls-10{fill:#ab6644;}.cls-11{fill:#ed8e5f;}.cls-12{clip-path:url(#clip-path-4);}.cls-13{clip-path:url(#clip-path-5);}.cls-14{clip-path:url(#clip-path-6);}.cls-15{stroke:#000;stroke-miterlimit:10;stroke-width:0.49px;fill:url(#linear-gradient);}</style><clipPath id="clip-path"><path class="cls-1" d="M88.79,2.83l-4-2.31a1.81,1.81,0,0,0-1.18.06l4,2.31A1.72,1.72,0,0,1,88.79,2.83Z"/></clipPath><clipPath id="clip-path-2"><path class="cls-1" d="M87.62,2.89l-4-2.31a3.11,3.11,0,0,0-.59.24l4,2.31A2.39,2.39,0,0,1,87.62,2.89Z"/></clipPath><clipPath id="clip-path-3"><path class="cls-1" d="M87,3.13l-4-2.31c-.47.28-.52.55-.52.57l4,2.3S86.55,3.4,87,3.13Z"/></clipPath><clipPath id="clip-path-4"><path class="cls-1" d="M64.84,2.83l4-2.31A1.78,1.78,0,0,1,70,.58L66,2.89A1.72,1.72,0,0,0,64.84,2.83Z"/></clipPath><clipPath id="clip-path-5"><path class="cls-1" d="M66,2.89,70,.58a2.86,2.86,0,0,1,.59.24l-4,2.31A2.39,2.39,0,0,0,66,2.89Z"/></clipPath><clipPath id="clip-path-6"><path class="cls-1" d="M66.6,3.13l4-2.31c.47.28.52.55.52.57l-4,2.3S67.07,3.4,66.6,3.13Z"/></clipPath><linearGradient id="linear-gradient" x1="220" y1="0.45" x2="220" y2="103.76" gradientUnits="userSpaceOnUse"><stop offset="0" stop-color="#f96"/><stop offset="0.13" stop-color="#e4895b"/><stop offset="0.42" stop-color="#9d5e3f"/><stop offset="0.83" stop-color="#2e1c13"/><stop offset="1"/></linearGradient></defs><title>Asset 3</title><g id="Layer_2" data-name="Layer 2"><g id="Layer_1-2" data-name="Layer 1"><text class="cls-2" transform="translate(17.04 122.05) scale(0.97 1)">японска кухня вкъщи</text><g class="cls-3"><polygon points="65.87 102.46 64.72 101.46 64.72 101.46 66.32 102.78 65.87 102.46"/><polygon points="81.19 29.12 77.22 26.81 64.72 101.46 65.87 102.46 81.19 29.12"/><polygon points="83.29 28.61 79.32 26.3 77.22 26.81 81.19 29.12 83.29 28.61"/><path d="M81.19,29.12,65.87,102.46l.45.32.69-.58c4.15-18.82,10.84-48.94,16.28-73.59Z"/><polygon class="cls-4" points="84.89 11.42 80.92 9.11 77.21 26.81 81.18 29.12 84.89 11.42"/><polygon class="cls-5" points="84.89 11.42 81.18 29.12 83.29 28.61 87.21 10.86 84.89 11.42"/><polygon class="cls-6" points="87.21 10.86 83.23 8.56 80.92 9.11 84.89 11.42 87.21 10.86"/><g class="cls-3"><g class="cls-7"><g class="cls-3"><path d="M88.79,2.83l-4-2.31a1.81,1.81,0,0,0-1.18.06l4,2.31a1.72,1.72,0,0,1,1.17-.06"/></g></g></g><g class="cls-3"><g class="cls-8"><g class="cls-3"><path d="M87.62,2.89l-4-2.31a3.11,3.11,0,0,0-.59.24l4,2.31a2.39,2.39,0,0,1,.59-.24"/></g></g></g><polygon points="86.5 3.69 82.53 1.39 80.92 9.11 84.89 11.42 86.5 3.69"/><path d="M87,3.13c-.48.27-.53.55-.53.56l-1.61,7.73,2.3-.55c.62-2.79,1.19-5.4,1.71-7.79.09-.38-.63-.4-1.28-.19A2.39,2.39,0,0,0,87,3.13Z"/><g class="cls-3"><g class="cls-9"><g class="cls-3"><path d="M87,3.13l-4-2.31c-.47.28-.52.55-.52.57l4,2.3s0-.29.53-.56"/></g></g></g></g><g class="cls-3"><polygon class="cls-10" points="74.37 68.1 77.14 66.5 82.14 79.3 79.38 80.9 74.37 68.1"/><polygon class="cls-6" points="73.17 68.21 75.93 66.61 77.14 66.5 74.37 68.1 73.17 68.21"/><polygon class="cls-11" points="74.37 68.1 79.38 80.9 78.17 81.02 73.17 68.21 74.37 68.1"/></g><g class="cls-3"><polygon points="87.74 102.46 88.89 101.46 88.89 101.46 87.29 102.78 87.74 102.46"/><polygon points="72.43 29.12 76.4 26.81 88.89 101.46 87.74 102.46 72.43 29.12"/><polygon points="70.33 28.61 74.3 26.3 76.4 26.81 72.43 29.12 70.33 28.61"/><path d="M72.43,29.12l15.31,73.34-.45.32-.68-.58C82.46,83.38,75.77,53.26,70.33,28.61Z"/><polygon class="cls-4" points="68.73 11.42 72.71 9.11 76.41 26.81 72.44 29.12 68.73 11.42"/><polygon class="cls-5" points="68.73 11.42 72.44 29.12 70.33 28.61 66.42 10.86 68.73 11.42"/><polygon class="cls-6" points="66.42 10.86 70.39 8.56 72.71 9.11 68.73 11.42 66.42 10.86"/><g class="cls-3"><g class="cls-12"><g class="cls-3"><path d="M64.84,2.83l4-2.31A1.78,1.78,0,0,1,70,.58L66,2.89a1.72,1.72,0,0,0-1.17-.06"/></g></g></g><g class="cls-3"><g class="cls-13"><g class="cls-3"><path d="M66,2.89,70,.58a2.86,2.86,0,0,1,.59.24l-4,2.31A2.39,2.39,0,0,0,66,2.89"/></g></g></g><polygon points="67.12 3.69 71.09 1.39 72.71 9.11 68.73 11.42 67.12 3.69"/><path d="M66.6,3.13c.47.27.52.55.52.56l1.61,7.73-2.3-.55-1.7-7.79c-.09-.38.63-.4,1.28-.19A2.39,2.39,0,0,1,66.6,3.13Z"/><g class="cls-3"><g class="cls-14"><g class="cls-3"><path d="M66.6,3.13l4-2.31c.47.28.52.55.52.57l-4,2.3s-.05-.29-.52-.56"/></g></g></g></g><path d="M54.31,103.37,43.07,84V68H26.73v35.41L15.49,84,15.35,68H5.88L0,58H15.35l0-57.53,11.38,19.6,0,37.93H43.06V.75L54.31,21.18Z"/><path d="M141.33,103.8,130.07,84.44l0-11.94a3.82,3.82,0,0,0-1.17-3.19,5.45,5.45,0,0,0-3.37-.91H115.38V104L104.1,84.65V68.4H94.56L88.25,57.59h15.93L104.09.45l11.25,19.34,0,37.7A33.92,33.92,0,0,0,127.85,41.3q2.21-6.19,2.2-15.73V.5l11.26,19.36,0,6.47a52.84,52.84,0,0,1-2.79,18,35.23,35.23,0,0,1-8.95,13.61c3.82,0,6.72,1.24,8.73,3.72a14.06,14.06,0,0,1,3,9.17Z"/><path d="M194.72,103.8,183.46,84.45l0-12a3.82,3.82,0,0,0-1.17-3.19,5.45,5.45,0,0,0-3.37-.91H168.77V104L157.5,84.65l0-16.25H148l-6.31-10.81h15.84V.45l11.26,19.38,0,37.66A34,34,0,0,0,181.25,41.3q2.19-6.19,2.19-15.73V.5l11.24,19.35.06,6.48a52.84,52.84,0,0,1-2.79,18A35.23,35.23,0,0,1,183,57.94q5.73,0,8.73,3.72a14.06,14.06,0,0,1,3,9.17Z"/><path class="cls-15" d="M245.26,103.76H229.12c-6.26,0-9.26-3.15-11.81-7.7-1.56-2.83-3.73-5.74-3.73-10.49l.1-16.84-12.44,0-6.5-11,18.94,0s-.1-5.25-.1-23.48.1-33.81.1-33.81h24.4l7.18,12.36-19.55-.1-.42,45h13.57l6.4,11h-20L224.87,88c0,1.82.63,3,1.91,3.64a7.33,7.33,0,0,0,3.08.46h8.58Z"/><path d="M287,103.76,275.75,84.39l-.05-14.62L261.37,45.55l.69,58.21L250.77,84.24V48c0-27.86,0-47.2,0-47.2l11.29,12.84L261.93,32l13.62,23.43L275.7,0,287,12.79v91Z"/></g></g></svg>