<?xml version="1.0" encoding="utf-8"?>
<!-- Generator: Adobe Illustrator 22.0.0, SVG Export Plug-In . SVG Version: 6.00 Build 0)  -->
<svg version="1.1" id="Layer_1" xmlns="http://www.w3.org/2000/svg" xmlns:xlink="http://www.w3.org/1999/xlink" x="0px" y="0px"
	 viewBox="0 0 288 158" style="enable-background:new 0 0 288 158;" xml:space="preserve">
<style type="text/css">
	.st0{fill:none;stroke:#C0272D;stroke-width:0.5079;stroke-miterlimit:10;}
	.st1{fill:none;stroke:#FF9966;stroke-width:0.5079;stroke-miterlimit:10;}
	.st2{fill:none;stroke:#FF9966;stroke-width:0.4833;stroke-miterlimit:10;}
	.st3{fill:none;stroke:#C0272D;stroke-width:0.4833;stroke-miterlimit:10;}
	.st4{fill:none;stroke:#FF00FF;stroke-width:0.4833;stroke-miterlimit:10;}
	.st5{fill:none;stroke:#FF00FF;stroke-width:0.5079;stroke-miterlimit:10;}
	.st6{fill:none;}
	.st7{enable-background:new    ;}
	.st8{fill:#824E34;}
	.st9{fill:#FA9664;}
	.st10{fill:#804D33;}
	.st11{clip-path:url(#SVGID_2_);enable-background:new    ;}
	.st12{clip-path:url(#SVGID_4_);enable-background:new    ;}
	.st13{clip-path:url(#SVGID_6_);enable-background:new    ;}
	.st14{clip-path:url(#SVGID_8_);enable-background:new    ;}
	.st15{clip-path:url(#SVGID_10_);enable-background:new    ;}
	.st16{clip-path:url(#SVGID_12_);enable-background:new    ;}
	.st17{fill:#333333;}
	.st18{fill:none;stroke:#FF00FF;stroke-width:0.4795;stroke-miterlimit:10;}
	.st19{fill:none;stroke:#000000;stroke-width:0.5039;stroke-miterlimit:10;}
	.st20{fill:url(#SVGID_13_);stroke:#000000;stroke-width:0.4794;stroke-miterlimit:10;}
</style>
<path class="st0" d="M230.8,13.6"/>
<path d="M41.8,13.6"/>
<path d="M87,13.6"/>
<path d="M90.5,13.6"/>
<path d="M74.1,13.6"/>
<path d="M77.6,13.6"/>
<polygon points="82.9,13.6 82.9,13.6 82.9,13.6 82.9,13.6 "/>
<path class="st1" d="M287.5,13.6"/>
<path class="st2" d="M274,13.6"/>
<path class="st3" d="M200,13.6"/>
<path class="st4" d="M120.1,13.6"/>
<path class="st4" d="M108.8,13.6"/>
<path class="st5" d="M264.6,13.6"/>
<path class="st6" d="M227.8,13.7"/>
<g>
	<g>
		<g class="st7">
			<g>
				<polygon points="68.4,125 67.2,123.9 67.2,123.9 68.8,125.4 				"/>
			</g>
			<g>
				<polygon points="83.6,45.4 79.7,42.9 67.2,123.9 68.4,125 				"/>
			</g>
			<g>
				<polygon points="85.7,44.8 81.8,42.3 79.7,42.9 83.6,45.4 				"/>
			</g>
			<g>
				<path d="M83.6,45.4L68.4,125l0.4,0.3l0.7-0.6c4.1-20.4,10.8-53.1,16.2-79.9L83.6,45.4z"/>
			</g>
			<g>
				<polygon class="st8" points="87.3,26.2 83.4,23.7 79.7,42.9 83.6,45.4 				"/>
			</g>
			<g>
				<polygon class="st9" points="87.3,26.2 83.6,45.4 85.7,44.8 89.6,25.6 				"/>
			</g>
			<g>
				<polygon class="st10" points="89.6,25.6 85.7,23.1 83.4,23.7 87.3,26.2 				"/>
			</g>
			<g class="st7">
				<defs>
					<path id="SVGID_1_" class="st7" d="M91.1,16.9l-3.9-2.5c-0.2-0.1-0.7-0.1-1.2,0.1l3.9,2.5C90.4,16.8,90.9,16.7,91.1,16.9z"/>
				</defs>
				<clipPath id="SVGID_2_">
					<use xlink:href="#SVGID_1_"  style="overflow:visible;"/>
				</clipPath>
				<g class="st11">
					<path d="M91.1,16.9l-3.9-2.5c-0.2-0.1-0.7-0.1-1.2,0.1l3.9,2.5C90.4,16.8,90.9,16.7,91.1,16.9"/>
				</g>
			</g>
			<g class="st7">
				<defs>
					<path id="SVGID_3_" class="st7" d="M90,16.9l-3.9-2.5c-0.2,0.1-0.4,0.2-0.6,0.3l3.9,2.5C89.5,17.1,89.7,17,90,16.9z"/>
				</defs>
				<clipPath id="SVGID_4_">
					<use xlink:href="#SVGID_3_"  style="overflow:visible;"/>
				</clipPath>
				<g class="st12">
					<path d="M90,16.9l-3.9-2.5c-0.2,0.1-0.4,0.2-0.6,0.3l3.9,2.5C89.5,17.1,89.7,17,90,16.9"/>
				</g>
			</g>
			<g>
				<polygon points="88.9,17.8 85,15.3 83.4,23.7 87.3,26.2 				"/>
			</g>
			<g>
				<path d="M89.4,17.2c-0.5,0.3-0.5,0.6-0.5,0.6l-1.6,8.4l2.3-0.6c0.6-3,1.2-5.9,1.7-8.5c0.1-0.4-0.6-0.4-1.3-0.2
					C89.7,17,89.5,17.1,89.4,17.2z"/>
			</g>
			<g class="st7">
				<defs>
					<path id="SVGID_5_" class="st7" d="M89.4,17.2l-3.9-2.5C85,15,85,15.3,85,15.3l3.9,2.5C88.9,17.8,88.9,17.5,89.4,17.2z"/>
				</defs>
				<clipPath id="SVGID_6_">
					<use xlink:href="#SVGID_5_"  style="overflow:visible;"/>
				</clipPath>
				<g class="st13">
					<path d="M89.4,17.2l-3.9-2.5C85,15,85,15.3,85,15.3l3.9,2.5C88.9,17.8,88.9,17.5,89.4,17.2"/>
				</g>
			</g>
		</g>
	</g>
	<g>
		<g class="st7">
			<g>
				<polygon points="92,125 93.1,123.9 93.1,123.9 91.6,125.4 				"/>
			</g>
			<g>
				<polygon points="78.1,45.3 81.8,42.8 93.1,123.9 92,125 				"/>
			</g>
			<g>
				<polygon points="76.2,44.8 79.8,42.3 81.8,42.8 78.1,45.3 				"/>
			</g>
			<g>
				<path d="M78.1,45.3L92,125l-0.4,0.3l-0.6-0.6c-3.8-20.4-9.9-53.2-14.8-80L78.1,45.3z"/>
			</g>
			<g>
				<polygon class="st8" points="74.7,26.1 78.4,23.6 81.8,42.8 78.1,45.3 				"/>
			</g>
			<g>
				<polygon class="st9" points="74.7,26.1 78.1,45.3 76.2,44.8 72.6,25.5 				"/>
			</g>
			<g>
				<polygon class="st10" points="72.6,25.5 76.3,23 78.4,23.6 74.7,26.1 				"/>
			</g>
			<g class="st7">
				<defs>
					<path id="SVGID_7_" class="st7" d="M71.2,16.8l3.7-2.5c0.2-0.1,0.7-0.1,1.1,0.1l-3.7,2.5C71.8,16.7,71.4,16.6,71.2,16.8z"/>
				</defs>
				<clipPath id="SVGID_8_">
					<use xlink:href="#SVGID_7_"  style="overflow:visible;"/>
				</clipPath>
				<g class="st14">
					<path d="M71.2,16.8l3.7-2.5c0.2-0.1,0.7-0.1,1.1,0.1l-3.7,2.5C71.8,16.7,71.4,16.6,71.2,16.8"/>
				</g>
			</g>
			<g class="st7">
				<defs>
					<path id="SVGID_9_" class="st7" d="M72.3,16.8l3.7-2.5c0.2,0.1,0.4,0.2,0.5,0.3l-3.7,2.5C72.7,17,72.5,16.9,72.3,16.8z"/>
				</defs>
				<clipPath id="SVGID_10_">
					<use xlink:href="#SVGID_9_"  style="overflow:visible;"/>
				</clipPath>
				<g class="st15">
					<path d="M72.3,16.8l3.7-2.5c0.2,0.1,0.4,0.2,0.5,0.3l-3.7,2.5C72.7,17,72.5,16.9,72.3,16.8"/>
				</g>
			</g>
			<g>
				<polygon points="73.3,17.7 76.9,15.2 78.4,23.6 74.7,26.1 				"/>
			</g>
			<g>
				<path d="M72.8,17.1c0.4,0.3,0.5,0.6,0.5,0.6l1.5,8.4l-2.1-0.6c-0.6-3-1.1-5.9-1.5-8.5c-0.1-0.4,0.6-0.4,1.2-0.2
					C72.5,16.9,72.7,17,72.8,17.1z"/>
			</g>
			<g class="st7">
				<defs>
					<path id="SVGID_11_" class="st7" d="M72.8,17.1l3.7-2.5c0.4,0.3,0.5,0.6,0.5,0.6l-3.7,2.5C73.3,17.7,73.2,17.4,72.8,17.1z"/>
				</defs>
				<clipPath id="SVGID_12_">
					<use xlink:href="#SVGID_11_"  style="overflow:visible;"/>
				</clipPath>
				<g class="st16">
					<path d="M72.8,17.1l3.7-2.5c0.4,0.3,0.5,0.6,0.5,0.6l-3.7,2.5C73.3,17.7,73.2,17.4,72.8,17.1"/>
				</g>
			</g>
		</g>
	</g>
	<g>
		<path class="st17" d="M33.4,128.3v14.2H30v-5.2h-2.4l-2.7,5.2h-3.7l3.3-6c-0.7-0.4-1.3-0.9-1.7-1.5c-0.4-0.6-0.6-1.4-0.6-2.2
			c0-1.5,0.5-2.6,1.6-3.3c1.1-0.8,2.6-1.1,4.6-1.1H33.4z M30,135v-4.5h-1.7c-1.7,0-2.6,0.7-2.6,2.2c0,0.8,0.2,1.3,0.6,1.7
			c0.4,0.4,1.1,0.6,1.9,0.6H30z"/>
		<path class="st17" d="M45.5,142.5v-11.6h-4.7v11.6h-3.4v-14.2h11.5v14.2H45.5z"/>
		<path class="st17" d="M63.6,129.8c1.2,1.3,1.7,3.2,1.7,5.5c0,1.5-0.3,2.8-0.8,3.9c-0.5,1.1-1.3,2-2.3,2.6c-1,0.6-2.2,0.9-3.5,0.9
			c-2.1,0-3.7-0.7-4.9-2c-1.2-1.3-1.8-3.2-1.8-5.5c0-1.5,0.3-2.8,0.8-3.9c0.5-1.1,1.3-2,2.3-2.6c1-0.6,2.2-0.9,3.5-0.9
			C60.8,127.8,62.4,128.5,63.6,129.8z M55.7,135.3c0,1.7,0.3,2.9,0.8,3.7c0.5,0.8,1.3,1.2,2.3,1.2s1.8-0.4,2.3-1.2
			c0.5-0.8,0.8-2,0.8-3.7s-0.3-2.9-0.8-3.7c-0.5-0.8-1.3-1.2-2.2-1.2C56.7,130.5,55.7,132.1,55.7,135.3z"/>
		<path class="st17" d="M76.7,142.5v-5.9h-4.8v5.9h-3.4v-14.2h3.4v5.7h4.8v-5.7h3.4v14.2H76.7z"/>
		<path class="st17" d="M92.3,128.3c0.7,0.3,1.4,0.7,2.1,1.3l-1.5,2.1c-0.5-0.4-0.9-0.6-1.4-0.8s-0.9-0.2-1.5-0.2
			c-2.1,0-3.2,1.6-3.2,4.9c0,1.6,0.3,2.8,0.8,3.6c0.5,0.7,1.3,1.1,2.3,1.1c0.5,0,1-0.1,1.4-0.2c0.4-0.2,0.9-0.4,1.5-0.8l1.5,2.2
			c-1.3,1.1-2.8,1.6-4.5,1.6c-1.3,0-2.5-0.3-3.5-0.9c-1-0.6-1.8-1.5-2.3-2.6c-0.5-1.1-0.8-2.4-0.8-3.9c0-1.5,0.3-2.8,0.8-4
			c0.5-1.2,1.3-2,2.3-2.7c1-0.6,2.2-1,3.5-1C90.7,127.8,91.6,128,92.3,128.3z"/>
		<path class="st17" d="M108.5,128.3l-4,6.6l4.4,7.6h-3.7l-3.4-6.3h-1.5v6.3h-3.4v-14.2h3.4v5.6h1.6l3.3-5.6H108.5z"/>
		<path class="st17" d="M121.3,139.9c0.2,0.3,0.4,0.5,0.8,0.6l-0.7,2.3c-0.8-0.1-1.4-0.3-2-0.6c-0.5-0.3-0.9-0.8-1.2-1.5
			c-0.5,0.7-1.1,1.2-1.8,1.6c-0.7,0.4-1.5,0.5-2.4,0.5c-1.4,0-2.5-0.4-3.3-1.2c-0.8-0.8-1.2-1.9-1.2-3.2c0-1.5,0.6-2.7,1.7-3.5
			c1.1-0.8,2.7-1.2,4.7-1.2h1.8v-0.8c0-0.9-0.2-1.6-0.6-1.9c-0.4-0.4-1.1-0.5-2-0.5c-1,0-2.3,0.3-3.7,0.8l-0.8-2.3
			c1.8-0.7,3.5-1,5.1-1c3.6,0,5.4,1.6,5.4,4.9v6C121.1,139.3,121.1,139.7,121.3,139.9z M117.7,138.6v-2.9h-1.4
			c-2.2,0-3.3,0.8-3.3,2.5c0,0.7,0.2,1.2,0.5,1.6c0.3,0.4,0.8,0.6,1.5,0.6C116.2,140.4,117.1,139.8,117.7,138.6z"/>
		<path class="st17" d="M143.5,128.3l-4,6.6l4.4,7.6h-3.7l-3.4-6.3h-1.5v6.3h-3.4v-14.2h3.4v5.6h1.6l3.3-5.6H143.5z"/>
		<path class="st17" d="M152.8,142.5c-0.6,1.8-1.4,3.1-2.6,4.1c-1.2,1-2.7,1.5-4.7,1.7l-0.3-2.5c0.9-0.1,1.7-0.3,2.2-0.6
			c0.6-0.3,1-0.6,1.3-1c0.3-0.4,0.6-1,0.9-1.7h-1.2l-4.5-14.2h3.6l3.1,11.9l3.2-11.9h3.5L152.8,142.5z"/>
		<path class="st17" d="M166.1,134.9l4.7,7.6h-3.9l-2.9-5.6l-2.9,5.6h-3.7l4.7-7.5l-4.2-6.7h3.9l2.4,4.8l2.4-4.8h3.7L166.1,134.9z"
			/>
		<path class="st17" d="M180.9,142.5v-5.9h-4.8v5.9h-3.4v-14.2h3.4v5.7h4.8v-5.7h3.4v14.2H180.9z"/>
		<path class="st17" d="M199,128.3v14.2h-3.4v-5.2h-2.4l-2.7,5.2h-3.7l3.3-6c-0.7-0.4-1.3-0.9-1.7-1.5c-0.4-0.6-0.6-1.4-0.6-2.2
			c0-1.5,0.5-2.6,1.6-3.3c1.1-0.8,2.6-1.1,4.6-1.1H199z M195.6,135v-4.5h-1.7c-1.7,0-2.6,0.7-2.6,2.2c0,0.8,0.2,1.3,0.6,1.7
			c0.4,0.4,1.1,0.6,1.9,0.6H195.6z"/>
		<path class="st17" d="M221.4,138.1c0,1.5-0.6,2.6-1.7,3.3c-1.1,0.7-2.6,1.1-4.5,1.1h-5.6v-14c1.9-0.4,3.6-0.6,5.1-0.6
			c1.8,0,3.3,0.3,4.3,1c1,0.7,1.6,1.6,1.6,2.9c0,0.8-0.2,1.5-0.7,2c-0.5,0.5-1.2,0.8-2.2,1C220.2,135,221.4,136.1,221.4,138.1z
			 M213.2,130.3v3.6h2c1.5,0,2.2-0.6,2.2-1.9c0-1.2-0.8-1.8-2.5-1.8C214.4,130.2,213.8,130.2,213.2,130.3z M217.9,137.9
			c0-0.7-0.2-1.2-0.6-1.5c-0.4-0.3-1.1-0.5-2-0.5h-2.1v4.1h2.1C217,140.1,217.9,139.3,217.9,137.9z"/>
		<path class="st17" d="M236.3,128.3l-4,6.6l4.4,7.6H233l-3.4-6.3H228v6.3h-3.4v-14.2h3.4v5.6h1.6l3.3-5.6H236.3z"/>
		<path class="st17" d="M250.8,134c1,0.8,1.5,2,1.5,3.6c0,1.6-0.5,2.8-1.6,3.6c-1.1,0.8-2.5,1.2-4.1,1.2h-5.3v-11.7h-4.4v-2.5h7.8
			v4.5h1.4C248.2,132.7,249.8,133.2,250.8,134z M248.8,137.5c0-0.8-0.2-1.5-0.6-1.9c-0.4-0.4-1.2-0.6-2.2-0.6h-1.4v5h1.6
			C247.9,140.1,248.8,139.2,248.8,137.5z"/>
		<path class="st17" d="M271.9,139.9h2.1v6.8h-2.5l-0.5-4.2h-16v-14.2h3.3v11.6h3.6v-11.6h3v11.6h3.6v-11.6h3.3V139.9z"/>
		<path class="st17" d="M288,142.5h-3.3v-5.7c0-1,0-2,0.1-2.9c0.1-0.9,0.2-1.6,0.3-2.1l-5.2,10.7h-3.6v-14.2h3.3v5.7
			c0,1,0,2-0.1,2.9c-0.1,1-0.2,1.7-0.3,2.1l5.2-10.7h3.7V142.5z"/>
	</g>
	<path d="M60.5,125.4l-11.1-20.9l0-17.4h-16v38.3l-11.1-21l0-17.3H6.5L0,74.8h22.3l0-60.5l11.1,21l0,39.5h16V14.3l11.1,21V125.4z"/>
	<g>
		<path d="M145.6,125.3l-11.1-20.9V91.6c0-1.6-0.4-2.8-1.2-3.4c-0.8-0.7-1.9-1.1-3.3-1.1h-9.7v38.2l-11.1-20.6V87.1h-9l-6.6-12.3
			h15.6l0-60.5l11.2,21l0,39.5c5.9-4.8,9.8-10,12-16.9c1.4-4.5,2.2-10.1,2.2-17l0-26.6l11.1,21v6.4c0,7.4-1,13.8-2.8,19.4
			c-1.8,5.6-4.3,9.4-8.3,13.6c3.7,0,6.1,2.4,8.1,5.1s3,6,3,9.9V125.3z"/>
		<path d="M197.8,125.3l-11.1-20.9V91.9c0-1.6-0.4-2.8-1.1-3.4c-0.8-0.7-1.9-1.4-3.3-1.4h-9.8l-0.1,38.3l-11-20.3l0-17.9l-9.2-0.1
			l-6.5-12.3h15.7V14.3l11.1,21v39.5c5.9-4.8,9.9-9.7,12.1-16.6c1.4-4.5,2.1-10.1,2.1-17V14.3l11.1,21v6.8c0,7.4-1,13.9-2.8,19.4
			c-1.8,5.6-4.3,9-8.3,13.3c3.7,0,6.2,2.8,8.1,5.4s3,6,3,9.9V125.3z"/>
		<path d="M288,125.3l-11.1-20.8l0-11.8l-13.3-22.9l0,55.4l-11.1-20.9c0,0,0-9,0-39.1s0-51,0-51l11.1,21l0,12.5l13.3,22.9l0-56.4
			l11.1,21c0,0,0,4.2,0,32.9S288,125.3,288,125.3z"/>
	</g>
	<path class="st18" d="M285.5,106.6"/>
	<path class="st18" d="M235.2,125.6"/>
	<path class="st18" d="M227.3,103.9"/>
	<line class="st19" x1="252.3" y1="14" x2="263.5" y2="35.1"/>
	<linearGradient id="SVGID_13_" gradientUnits="userSpaceOnUse" x1="221.6314" y1="14.655" x2="221.6314" y2="125.3686">
		<stop  offset="0" style="stop-color:#FF9966"/>
		<stop  offset="8.347061e-02" style="stop-color:#E37750"/>
		<stop  offset="0.2557" style="stop-color:#AD3727"/>
		<stop  offset="0.3813" style="stop-color:#8C0F0D"/>
		<stop  offset="0.4463" style="stop-color:#7F0003"/>
		<stop  offset="0.5285" style="stop-color:#620002"/>
		<stop  offset="0.6637" style="stop-color:#380001"/>
		<stop  offset="0.786" style="stop-color:#190001"/>
		<stop  offset="0.89" style="stop-color:#070000"/>
		<stop  offset="0.9634" style="stop-color:#000000"/>
	</linearGradient>
	<path class="st20" d="M246.1,125.4h-19.4c-5.1,0-5.2-2.5-7.1-7.8c-2.1-5.9-2.3-6.3-4-11.2V87h-12.2l-6.3-12.3h18.4
		c0,0,0,0.9,0-16.9c0-17.8,0.1-43.2,0.1-43.2h19.9l10.6,20.6h-12.4l-5-9.5c-1.8-3.7-1.8-3.1-1.8,1.1l0,47.9H240l6,12.3h-19.3v19.4
		c1,2.7,1.5,4.2,2.5,6.8c0.5,1.3,1.2,1.1,2.2,1.1h8.5L246.1,125.4z"/>
</g>
</svg>
