<?xml version="1.0" encoding="utf-8"?>
<!-- Generator: Adobe Illustrator 22.0.0, SVG Export Plug-In . SVG Version: 6.00 Build 0)  -->
<svg version="1.1" id="Layer_1" xmlns="http://www.w3.org/2000/svg" xmlns:xlink="http://www.w3.org/1999/xlink" x="0px" y="0px"
	 viewBox="0 0 287 129.5" style="enable-background:new 0 0 287 129.5;" xml:space="preserve">
<style type="text/css">
	.st0{fill:none;stroke:#C0272D;stroke-width:0.49;stroke-miterlimit:10;}
	.st1{fill:none;stroke:#C0272D;stroke-width:0.474;stroke-miterlimit:10;}
	.st2{fill:none;stroke:#FF9966;stroke-width:0.474;stroke-miterlimit:10;}
	.st3{fill:none;stroke:#FF9966;stroke-width:0.451;stroke-miterlimit:10;}
	.st4{fill:none;stroke:#C0272D;stroke-width:0.451;stroke-miterlimit:10;}
	.st5{fill:none;stroke:#FF00FF;stroke-width:0.451;stroke-miterlimit:10;}
	.st6{fill:none;stroke:#FF00FF;stroke-width:0.474;stroke-miterlimit:10;}
	.st7{fill:none;}
	.st8{enable-background:new    ;}
	.st9{fill:#824E34;}
	.st10{fill:#FA9664;}
	.st11{fill:#804D33;}
	.st12{clip-path:url(#SVGID_2_);enable-background:new    ;}
	.st13{clip-path:url(#SVGID_4_);enable-background:new    ;}
	.st14{clip-path:url(#SVGID_6_);enable-background:new    ;}
	.st15{clip-path:url(#SVGID_8_);enable-background:new    ;}
	.st16{clip-path:url(#SVGID_10_);enable-background:new    ;}
	.st17{clip-path:url(#SVGID_12_);enable-background:new    ;}
	.st18{fill:#333333;}
	.st19{fill:none;stroke:#FF00FF;stroke-width:0.4778;stroke-miterlimit:10;}
	.st20{fill:url(#SVGID_13_);stroke:#000000;stroke-width:0.4777;stroke-miterlimit:10;}
</style>
<title>hakkenB</title>
<path class="st0" d="M196.6-16"/>
<path class="st1" d="M225.5,3.4"/>
<path d="M49.2,3.4"/>
<path d="M91.4,3.4"/>
<path d="M94.6,3.4"/>
<path d="M79.3,3.4"/>
<path d="M82.6,3.4"/>
<polygon points="87.5,3.4 87.5,3.4 87.5,3.4 87.5,3.4 "/>
<path class="st2" d="M278.4,3.4"/>
<path class="st3" d="M265.9,3.4"/>
<path class="st4" d="M196.8,3.4"/>
<path class="st5" d="M122.2,3.4"/>
<path class="st5" d="M111.7,3.4"/>
<path class="st6" d="M257.1,3.4"/>
<path class="st7" d="M222.8,3.5"/>
<g>
	<g>
		<g class="st8">
			<g>
				<polygon points="68.1,110.2 67,109.1 67,109.1 68.6,110.5 				"/>
			</g>
			<g>
				<polygon points="83.3,30.8 79.4,28.3 67,109.1 68.1,110.2 				"/>
			</g>
			<g>
				<polygon points="85.4,30.3 81.5,27.7 79.4,28.3 83.3,30.8 				"/>
			</g>
			<g>
				<path d="M83.3,30.8l-15.2,79.4l0.4,0.3l0.7-0.6C73.3,89.5,80,56.9,85.4,30.3L83.3,30.8z"/>
			</g>
			<g>
				<polygon class="st9" points="87,11.7 83.1,9.1 79.4,28.3 83.3,30.8 				"/>
			</g>
			<g>
				<polygon class="st10" points="87,11.7 83.3,30.8 85.4,30.3 89.2,11.1 				"/>
			</g>
			<g>
				<polygon class="st11" points="89.2,11.1 85.4,8.6 83.1,9.1 87,11.7 				"/>
			</g>
			<g class="st8">
				<defs>
					<path id="SVGID_1_" class="st8" d="M90.8,2.4l-3.9-2.5c-0.2-0.1-0.7-0.1-1.1,0.1l3.9,2.5C90.1,2.3,90.6,2.2,90.8,2.4z"/>
				</defs>
				<clipPath id="SVGID_2_">
					<use xlink:href="#SVGID_1_"  style="overflow:visible;"/>
				</clipPath>
				<g class="st12">
					<path d="M90.8,2.4l-3.9-2.5c-0.2-0.1-0.7-0.1-1.1,0.1l3.9,2.5C90.1,2.3,90.6,2.2,90.8,2.4"/>
				</g>
			</g>
			<g class="st8">
				<defs>
					<path id="SVGID_3_" class="st8" d="M89.7,2.4l-3.9-2.5c-0.2,0.1-0.4,0.2-0.6,0.3l3.9,2.5C89.2,2.6,89.4,2.5,89.7,2.4z"/>
				</defs>
				<clipPath id="SVGID_4_">
					<use xlink:href="#SVGID_3_"  style="overflow:visible;"/>
				</clipPath>
				<g class="st13">
					<path d="M89.7,2.4l-3.9-2.5c-0.2,0.1-0.4,0.2-0.6,0.3l3.9,2.5C89.2,2.6,89.4,2.5,89.7,2.4"/>
				</g>
			</g>
			<g>
				<polygon points="88.6,3.3 84.7,0.8 83.1,9.1 87,11.7 				"/>
			</g>
			<g>
				<path d="M89.1,2.7c-0.5,0.3-0.5,0.6-0.5,0.6L87,11.7l2.3-0.6c0.6-3,1.2-5.8,1.7-8.4c0.1-0.4-0.6-0.4-1.3-0.2
					C89.4,2.5,89.2,2.6,89.1,2.7z"/>
			</g>
			<g class="st8">
				<defs>
					<path id="SVGID_5_" class="st8" d="M89.1,2.7l-3.9-2.5c-0.5,0.3-0.5,0.6-0.5,0.6l3.9,2.5C88.6,3.3,88.6,3,89.1,2.7z"/>
				</defs>
				<clipPath id="SVGID_6_">
					<use xlink:href="#SVGID_5_"  style="overflow:visible;"/>
				</clipPath>
				<g class="st14">
					<path d="M89.1,2.7l-3.9-2.5c-0.5,0.3-0.5,0.6-0.5,0.6l3.9,2.5C88.6,3.3,88.6,3,89.1,2.7"/>
				</g>
			</g>
		</g>
	</g>
	<g>
		<g class="st8">
			<g>
				<polygon points="91.7,110.2 92.8,109.1 92.8,109.1 91.3,110.5 				"/>
			</g>
			<g>
				<polygon points="77.8,30.7 81.5,28.2 92.8,109.1 91.7,110.2 				"/>
			</g>
			<g>
				<polygon points="75.9,30.2 79.6,27.7 81.5,28.2 77.8,30.7 				"/>
			</g>
			<g>
				<path d="M77.8,30.7l13.9,79.4l-0.4,0.3l-0.6-0.6c-3.8-20.4-9.8-53-14.8-79.7L77.8,30.7z"/>
			</g>
			<g>
				<polygon class="st9" points="74.5,11.6 78.1,9.1 81.5,28.2 77.8,30.7 				"/>
			</g>
			<g>
				<polygon class="st10" points="74.5,11.6 77.8,30.7 75.9,30.2 72.4,11 				"/>
			</g>
			<g>
				<polygon class="st11" points="72.4,11 76,8.5 78.1,9.1 74.5,11.6 				"/>
			</g>
			<g class="st8">
				<defs>
					<path id="SVGID_7_" class="st8" d="M70.9,2.3l3.7-2.5c0.2-0.1,0.7-0.1,1.1,0.1L72,2.3C71.6,2.2,71.1,2.1,70.9,2.3z"/>
				</defs>
				<clipPath id="SVGID_8_">
					<use xlink:href="#SVGID_7_"  style="overflow:visible;"/>
				</clipPath>
				<g class="st15">
					<path d="M70.9,2.3l3.7-2.5c0.2-0.1,0.7-0.1,1.1,0.1L72,2.3C71.6,2.2,71.1,2.1,70.9,2.3"/>
				</g>
			</g>
			<g class="st8">
				<defs>
					<path id="SVGID_9_" class="st8" d="M72,2.3l3.7-2.5c0.2,0.1,0.4,0.2,0.5,0.3l-3.7,2.5C72.4,2.5,72.2,2.4,72,2.3z"/>
				</defs>
				<clipPath id="SVGID_10_">
					<use xlink:href="#SVGID_9_"  style="overflow:visible;"/>
				</clipPath>
				<g class="st16">
					<path d="M72,2.3l3.7-2.5c0.2,0.1,0.4,0.2,0.5,0.3l-3.7,2.5C72.4,2.5,72.2,2.4,72,2.3"/>
				</g>
			</g>
			<g>
				<polygon points="73,3.2 76.7,0.7 78.1,9.1 74.5,11.6 				"/>
			</g>
			<g>
				<path d="M72.5,2.6C73,2.9,73,3.2,73,3.2l1.5,8.4L72.4,11c-0.6-3-1.1-5.8-1.5-8.4c-0.1-0.4,0.6-0.4,1.2-0.2
					C72.2,2.4,72.4,2.5,72.5,2.6z"/>
			</g>
			<g class="st8">
				<defs>
					<path id="SVGID_11_" class="st8" d="M72.5,2.6l3.7-2.5c0.4,0.3,0.5,0.6,0.5,0.6L73,3.2C73,3.2,73,2.9,72.5,2.6z"/>
				</defs>
				<clipPath id="SVGID_12_">
					<use xlink:href="#SVGID_11_"  style="overflow:visible;"/>
				</clipPath>
				<g class="st17">
					<path d="M72.5,2.6l3.7-2.5c0.4,0.3,0.5,0.6,0.5,0.6L73,3.2C73,3.2,73,2.9,72.5,2.6"/>
				</g>
			</g>
		</g>
	</g>
	<g>
		<path class="st18" d="M33.2,113.4v14.2h-3.4v-5.2h-2.4l-2.7,5.2h-3.7l3.3-5.9c-0.7-0.4-1.3-0.9-1.7-1.5c-0.4-0.6-0.6-1.4-0.6-2.2
			c0-1.5,0.5-2.6,1.6-3.3c1.1-0.8,2.6-1.1,4.6-1.1H33.2z M29.9,120.1v-4.4h-1.7c-1.7,0-2.6,0.7-2.6,2.2c0,0.8,0.2,1.3,0.6,1.7
			s1,0.6,1.9,0.6H29.9z"/>
		<path class="st18" d="M45.4,127.5V116h-4.7v11.5h-3.4v-14.2h11.4v14.2H45.4z"/>
		<path class="st18" d="M63.4,115c1.2,1.3,1.7,3.2,1.7,5.5c0,1.5-0.3,2.8-0.8,3.9c-0.5,1.1-1.3,2-2.3,2.6c-1,0.6-2.2,0.9-3.5,0.9
			c-2.1,0-3.7-0.7-4.8-2c-1.2-1.3-1.7-3.2-1.7-5.5c0-1.5,0.3-2.8,0.8-3.9c0.5-1.1,1.3-2,2.3-2.6c1-0.6,2.2-0.9,3.5-0.9
			C60.6,113,62.2,113.6,63.4,115z M55.5,120.4c0,1.7,0.3,2.9,0.8,3.7c0.5,0.8,1.3,1.2,2.3,1.2c1,0,1.8-0.4,2.3-1.2
			c0.5-0.8,0.8-2,0.8-3.7s-0.2-2.9-0.8-3.7c-0.5-0.8-1.2-1.2-2.2-1.2C56.5,115.6,55.5,117.2,55.5,120.4z"/>
		<path class="st18" d="M76.4,127.5v-5.9h-4.7v5.9h-3.4v-14.2h3.4v5.6h4.7v-5.6h3.4v14.2H76.4z"/>
		<path class="st18" d="M92,113.4c0.7,0.3,1.4,0.7,2.1,1.3l-1.5,2.1c-0.5-0.4-0.9-0.6-1.4-0.8s-0.9-0.2-1.5-0.2
			c-2.1,0-3.2,1.6-3.2,4.8c0,1.6,0.3,2.8,0.8,3.5c0.5,0.7,1.3,1.1,2.3,1.1c0.5,0,0.9-0.1,1.4-0.2c0.4-0.2,0.9-0.4,1.5-0.8l1.5,2.2
			c-1.3,1.1-2.8,1.6-4.5,1.6c-1.3,0-2.5-0.3-3.5-0.9c-1-0.6-1.7-1.5-2.3-2.6c-0.5-1.1-0.8-2.4-0.8-3.9c0-1.5,0.3-2.8,0.8-4
			c0.5-1.1,1.3-2,2.3-2.7c1-0.6,2.1-1,3.5-1C90.4,113,91.3,113.1,92,113.4z"/>
		<path class="st18" d="M108.1,113.4l-3.9,6.6l4.4,7.6h-3.7l-3.4-6.3h-1.5v6.3h-3.4v-14.2h3.4v5.6h1.6l3.3-5.6H108.1z"/>
		<path class="st18" d="M120.9,125c0.2,0.3,0.4,0.5,0.8,0.6l-0.7,2.3c-0.8-0.1-1.4-0.3-1.9-0.6c-0.5-0.3-0.9-0.8-1.2-1.5
			c-0.5,0.7-1.1,1.2-1.8,1.6c-0.7,0.3-1.5,0.5-2.4,0.5c-1.4,0-2.5-0.4-3.3-1.2c-0.8-0.8-1.2-1.9-1.2-3.2c0-1.5,0.5-2.7,1.7-3.5
			c1.1-0.8,2.7-1.2,4.7-1.2h1.7V118c0-0.9-0.2-1.5-0.6-1.9c-0.4-0.4-1.1-0.5-2-0.5c-1,0-2.3,0.3-3.7,0.7l-0.8-2.3
			c1.7-0.7,3.4-1,5.1-1c3.6,0,5.4,1.6,5.4,4.9v5.9C120.6,124.3,120.7,124.7,120.9,125z M117.3,123.7v-2.9h-1.4
			c-2.2,0-3.3,0.8-3.3,2.5c0,0.7,0.2,1.2,0.5,1.6c0.3,0.4,0.8,0.6,1.5,0.6C115.8,125.4,116.7,124.9,117.3,123.7z"/>
		<path class="st18" d="M143,113.4l-3.9,6.6l4.4,7.6h-3.7l-3.4-6.3h-1.5v6.3h-3.4v-14.2h3.4v5.6h1.6l3.3-5.6H143z"/>
		<path class="st18" d="M152.3,127.6c-0.6,1.7-1.4,3.1-2.6,4.1c-1.1,1-2.7,1.5-4.7,1.7l-0.3-2.5c0.9-0.1,1.7-0.3,2.2-0.6
			c0.6-0.3,1-0.6,1.3-1c0.3-0.4,0.6-1,0.9-1.7H148l-4.4-14.2h3.6l3,11.9l3.2-11.9h3.5L152.3,127.6z"/>
		<path class="st18" d="M165.5,120l4.7,7.6h-3.9l-2.9-5.6l-2.9,5.6h-3.7l4.7-7.5l-4.2-6.7h3.9l2.4,4.8l2.4-4.8h3.7L165.5,120z"/>
		<path class="st18" d="M180.3,127.5v-5.9h-4.7v5.9h-3.4v-14.2h3.4v5.6h4.7v-5.6h3.4v14.2H180.3z"/>
		<path class="st18" d="M198.3,113.4v14.2h-3.4v-5.2h-2.4l-2.7,5.2h-3.7l3.3-5.9c-0.7-0.4-1.3-0.9-1.7-1.5c-0.4-0.6-0.6-1.4-0.6-2.2
			c0-1.5,0.5-2.6,1.6-3.3c1.1-0.8,2.6-1.1,4.6-1.1H198.3z M194.9,120.1v-4.4h-1.7c-1.7,0-2.6,0.7-2.6,2.2c0,0.8,0.2,1.3,0.6,1.7
			s1,0.6,1.9,0.6H194.9z"/>
		<path class="st18" d="M220.7,123.2c0,1.5-0.6,2.6-1.7,3.3c-1.1,0.7-2.6,1.1-4.5,1.1H209v-14c1.9-0.4,3.6-0.6,5.1-0.6
			c1.8,0,3.2,0.3,4.3,1c1,0.7,1.6,1.6,1.6,2.9c0,0.8-0.2,1.5-0.7,2s-1.2,0.8-2.2,1C219.5,120.1,220.7,121.2,220.7,123.2z
			 M212.4,115.4v3.6h2c1.5,0,2.2-0.6,2.2-1.9c0-1.2-0.8-1.8-2.5-1.8C213.6,115.3,213.1,115.3,212.4,115.4z M217.2,123
			c0-0.7-0.2-1.1-0.6-1.5c-0.4-0.3-1.1-0.5-2-0.5h-2.1v4.1h2.1C216.3,125.2,217.2,124.4,217.2,123z"/>
		<path class="st18" d="M235.5,113.4l-3.9,6.6l4.4,7.6h-3.7l-3.4-6.3h-1.5v6.3h-3.4v-14.2h3.4v5.6h1.6l3.3-5.6H235.5z"/>
		<path class="st18" d="M250,119.1c1,0.8,1.5,2,1.5,3.6c0,1.6-0.5,2.8-1.6,3.6c-1.1,0.8-2.5,1.2-4.1,1.2h-5.3v-11.7h-4.3v-2.5h7.7
			v4.5h1.4C247.4,117.8,248.9,118.3,250,119.1z M247.9,122.6c0-0.8-0.2-1.5-0.6-1.9c-0.4-0.4-1.1-0.6-2.2-0.6h-1.4v5h1.6
			C247.1,125.2,247.9,124.3,247.9,122.6z"/>
		<path class="st18" d="M270.9,124.9h2.1v6.8h-2.5l-0.5-4.2h-16v-14.2h3.3v11.6h3.6v-11.6h3v11.6h3.6v-11.6h3.3V124.9z"/>
		<path class="st18" d="M287,127.5h-3.3v-5.7c0-1,0-2,0.1-2.9c0.1-0.9,0.2-1.6,0.3-2.1l-5.2,10.7h-3.6v-14.2h3.3v5.7
			c0,1,0,2-0.1,2.9c-0.1,1-0.2,1.7-0.3,2.1l5.2-10.7h3.7V127.5z"/>
	</g>
	<path d="M60.3,110.5L49.2,89.7l0-17.3H33.3v38.1L22.2,89.6l0-17.2H6.5L0,60.1h22.2l0-60.3l11.1,21l0,39.4h15.9V-0.2l11.1,20.9
		V110.5z"/>
	<g>
		<path d="M145.1,110.4L134,89.6V76.8c0-1.6-0.4-2.8-1.2-3.4c-0.8-0.6-1.9-1.1-3.3-1.1h-9.7v38.1l-11.1-20.6V72.3h-9l-6.5-12.3h15.6
			l0-60.3l11.1,20.9l0,39.3c5.9-4.8,9.8-10,12-16.9c1.4-4.5,2.2-10.1,2.2-16.9l0-26.5l11.1,20.9v6.4c0,7.4-1,13.8-2.8,19.3
			c-1.8,5.5-4.3,9.4-8.3,13.6c3.7,0,6.1,2.4,8.1,5.1c2,2.7,3,6,3,9.9V110.4z"/>
		<path d="M197.1,110.4L186,89.6V77.2c0-1.6-0.4-2.8-1.1-3.4c-0.8-0.6-1.9-1.4-3.3-1.4h-9.7l-0.1,38.2l-11-20.3l0-17.9l-9.1-0.1
			l-6.5-12.2h15.7V-0.2l11.1,20.9v39.3c5.9-4.8,9.9-9.7,12.1-16.5c1.4-4.5,2.1-10.1,2.1-16.9V-0.2l11.1,20.9v6.8
			c0,7.4-1,13.8-2.8,19.3c-1.8,5.5-4.3,9-8.3,13.2c3.7,0,6.1,2.7,8.1,5.4c2,2.7,3,6,3,9.9V110.4z"/>
		<path d="M287,110.4l-11.1-20.7l0-11.7l-13.2-22.8l0,55.2l-11.1-20.8c0,0,0-9,0-39s0-50.8,0-50.8l11.1,20.9l0,12.4L275.9,56l0-56.2
			L287,20.7c0,0,0,4.2,0,32.8S287,110.4,287,110.4z"/>
	</g>
	<path class="st19" d="M284.5,91.8"/>
	<path class="st19" d="M234.4,110.7"/>
	<path class="st19" d="M226.5,89.1"/>
	<linearGradient id="SVGID_13_" gradientUnits="userSpaceOnUse" x1="220.8618" y1="0.1757" x2="220.8618" y2="110.5049">
		<stop  offset="0" style="stop-color:#FF9966"/>
		<stop  offset="8.347061e-02" style="stop-color:#E37750"/>
		<stop  offset="0.2557" style="stop-color:#AD3727"/>
		<stop  offset="0.3813" style="stop-color:#8C0F0D"/>
		<stop  offset="0.4463" style="stop-color:#7F0003"/>
		<stop  offset="0.5285" style="stop-color:#620002"/>
		<stop  offset="0.6637" style="stop-color:#380001"/>
		<stop  offset="0.786" style="stop-color:#190001"/>
		<stop  offset="0.89" style="stop-color:#070000"/>
		<stop  offset="0.9634" style="stop-color:#000000"/>
	</linearGradient>
	<path class="st20" d="M245.3,110.5h-19.4c-5.1,0-5.2-2.5-7.1-7.7c-2.1-5.9-2.3-6.3-4-11.1V72.3h-12.2l-6.3-12.2h18.4
		c0,0,0,0.9,0-16.8c0-17.7,0.1-43.1,0.1-43.1h19.8l10.5,20.6h-12.4l-5-9.4c-1.8-3.7-1.8-3.1-1.8,1.1l0,47.7h13.1l6,12.2h-19.2v19.4
		c1,2.6,1.5,4.2,2.5,6.8c0.5,1.3,1.2,1.1,2.2,1.1h8.5L245.3,110.5z"/>
</g>
</svg>
